%TF.GenerationSoftware,KiCad,Pcbnew,(7.0.0)*%
%TF.CreationDate,2023-03-08T16:57:33-05:00*%
%TF.ProjectId,RESTORE_AVR_FUSES_SMD,52455354-4f52-4455-9f41-56525f465553,1.1v*%
%TF.SameCoordinates,Original*%
%TF.FileFunction,Soldermask,Top*%
%TF.FilePolarity,Negative*%
%FSLAX46Y46*%
G04 Gerber Fmt 4.6, Leading zero omitted, Abs format (unit mm)*
G04 Created by KiCad (PCBNEW (7.0.0)) date 2023-03-08 16:57:33*
%MOMM*%
%LPD*%
G01*
G04 APERTURE LIST*
G04 Aperture macros list*
%AMRoundRect*
0 Rectangle with rounded corners*
0 $1 Rounding radius*
0 $2 $3 $4 $5 $6 $7 $8 $9 X,Y pos of 4 corners*
0 Add a 4 corners polygon primitive as box body*
4,1,4,$2,$3,$4,$5,$6,$7,$8,$9,$2,$3,0*
0 Add four circle primitives for the rounded corners*
1,1,$1+$1,$2,$3*
1,1,$1+$1,$4,$5*
1,1,$1+$1,$6,$7*
1,1,$1+$1,$8,$9*
0 Add four rect primitives between the rounded corners*
20,1,$1+$1,$2,$3,$4,$5,0*
20,1,$1+$1,$4,$5,$6,$7,0*
20,1,$1+$1,$6,$7,$8,$9,0*
20,1,$1+$1,$8,$9,$2,$3,0*%
G04 Aperture macros list end*
%TA.AperFunction,Profile*%
%ADD10C,0.100000*%
%TD*%
%ADD11RoundRect,0.300800X-0.400000X-0.625000X0.400000X-0.625000X0.400000X0.625000X-0.400000X0.625000X0*%
%ADD12C,2.101600*%
%ADD13C,3.301600*%
%ADD14RoundRect,0.050800X0.800000X-0.800000X0.800000X0.800000X-0.800000X0.800000X-0.800000X-0.800000X0*%
%ADD15O,1.701600X1.701600*%
%ADD16RoundRect,0.300800X0.400000X0.625000X-0.400000X0.625000X-0.400000X-0.625000X0.400000X-0.625000X0*%
%ADD17RoundRect,0.300800X-0.625000X0.400000X-0.625000X-0.400000X0.625000X-0.400000X0.625000X0.400000X0*%
%ADD18RoundRect,0.050800X0.475000X-1.100000X0.475000X1.100000X-0.475000X1.100000X-0.475000X-1.100000X0*%
%ADD19RoundRect,0.300800X0.625000X-0.400000X0.625000X0.400000X-0.625000X0.400000X-0.625000X-0.400000X0*%
%ADD20RoundRect,0.200800X-0.150000X0.587500X-0.150000X-0.587500X0.150000X-0.587500X0.150000X0.587500X0*%
%ADD21RoundRect,0.300800X0.650000X-0.325000X0.650000X0.325000X-0.650000X0.325000X-0.650000X-0.325000X0*%
%ADD22O,1.602740X2.301240*%
%ADD23RoundRect,0.200800X0.150000X-0.587500X0.150000X0.587500X-0.150000X0.587500X-0.150000X-0.587500X0*%
%ADD24RoundRect,0.050800X1.250000X-0.750000X1.250000X0.750000X-1.250000X0.750000X-1.250000X-0.750000X0*%
%ADD25RoundRect,0.300800X-0.550000X1.500000X-0.550000X-1.500000X0.550000X-1.500000X0.550000X1.500000X0*%
%ADD26RoundRect,0.200800X-0.150000X0.875000X-0.150000X-0.875000X0.150000X-0.875000X0.150000X0.875000X0*%
%ADD27RoundRect,0.300800X1.500000X0.550000X-1.500000X0.550000X-1.500000X-0.550000X1.500000X-0.550000X0*%
%ADD28RoundRect,0.200800X-0.587500X-0.150000X0.587500X-0.150000X0.587500X0.150000X-0.587500X0.150000X0*%
%ADD29RoundRect,0.275800X0.375000X-0.225000X0.375000X0.225000X-0.375000X0.225000X-0.375000X-0.225000X0*%
G04 APERTURE END LIST*
D10*
%TO.C,A1*%
X101600000Y-76200000D02*
X101600000Y-129540000D01*
X101600000Y-129540000D02*
X167640000Y-129540000D01*
X166120000Y-76200000D02*
X101600000Y-76200000D01*
X167640000Y-77720000D02*
X166120000Y-76200000D01*
X167640000Y-89150000D02*
X167640000Y-77720000D01*
X167640000Y-127000000D02*
X170180000Y-124460000D01*
X167640000Y-129540000D02*
X167640000Y-127000000D01*
X170180000Y-91690000D02*
X167640000Y-89150000D01*
X170180000Y-124460000D02*
X170180000Y-91690000D01*
%TD*%
D11*
%TO.C,R2*%
X132273500Y-121412000D03*
X135373500Y-121412000D03*
%TD*%
D12*
%TO.C,SW2*%
X105514000Y-78740000D03*
X112014000Y-78740000D03*
X105514000Y-83240000D03*
X112014000Y-83240000D03*
%TD*%
D13*
%TO.C,A1*%
X115570000Y-127000000D03*
X116840000Y-78740000D03*
X167640000Y-93980000D03*
X167640000Y-121920000D03*
D14*
X129540000Y-127000000D03*
D15*
X132079999Y-126999999D03*
X134619999Y-126999999D03*
X137159999Y-126999999D03*
X139699999Y-126999999D03*
X142239999Y-126999999D03*
X144779999Y-126999999D03*
X147319999Y-126999999D03*
X152399999Y-126999999D03*
X154939999Y-126999999D03*
X157479999Y-126999999D03*
X160019999Y-126999999D03*
X162559999Y-126999999D03*
X165099999Y-126999999D03*
X165099999Y-78739999D03*
X162559999Y-78739999D03*
X160019999Y-78739999D03*
X157479999Y-78739999D03*
X154939999Y-78739999D03*
X152399999Y-78739999D03*
X149859999Y-78739999D03*
X147319999Y-78739999D03*
X143259999Y-78739999D03*
X140719999Y-78739999D03*
X138179999Y-78739999D03*
X135639999Y-78739999D03*
X133099999Y-78739999D03*
X130559999Y-78739999D03*
X128019999Y-78739999D03*
X125479999Y-78739999D03*
X122939999Y-78739999D03*
X120399999Y-78739999D03*
%TD*%
D16*
%TO.C,R24*%
X108738000Y-106426000D03*
X105638000Y-106426000D03*
%TD*%
D17*
%TO.C,R15*%
X158882664Y-118185000D03*
X158882664Y-121285000D03*
%TD*%
D18*
%TO.C,D2*%
X108538000Y-96901000D03*
X105638000Y-96901000D03*
%TD*%
%TO.C,D4*%
X108538000Y-100457000D03*
X105638000Y-100457000D03*
%TD*%
D16*
%TO.C,R25*%
X121946000Y-85756750D03*
X118846000Y-85756750D03*
%TD*%
D19*
%TO.C,R11*%
X143510000Y-93212513D03*
X143510000Y-90112513D03*
%TD*%
D20*
%TO.C,Q2*%
X140650000Y-121061000D03*
X138750000Y-121061000D03*
X139700000Y-122936000D03*
%TD*%
D19*
%TO.C,R8*%
X151130000Y-93212513D03*
X151130000Y-90112513D03*
%TD*%
D21*
%TO.C,C1*%
X140716000Y-118615000D03*
X140716000Y-115665000D03*
%TD*%
D22*
%TO.C,ZIF1*%
X124459999Y-108330999D03*
X126999999Y-108330999D03*
X129539999Y-108330999D03*
X132079999Y-108330999D03*
X134619999Y-108330999D03*
X137159999Y-108330999D03*
X139699999Y-108330999D03*
X142239999Y-108330999D03*
X144779999Y-108330999D03*
X147319999Y-108330999D03*
X149859999Y-108330999D03*
X152399999Y-108330999D03*
X154939999Y-108330999D03*
X157479999Y-108330999D03*
X157479999Y-100710999D03*
X154939999Y-100710999D03*
X152399999Y-100710999D03*
X149859999Y-100710999D03*
X147319999Y-100710999D03*
X144779999Y-100710999D03*
X142239999Y-100710999D03*
X139699999Y-100710999D03*
X137159999Y-100710999D03*
X134619999Y-100710999D03*
X132079999Y-100710999D03*
X129539999Y-100710999D03*
X126999999Y-100710999D03*
X124459999Y-100710999D03*
%TD*%
D19*
%TO.C,R1*%
X122428000Y-117915000D03*
X122428000Y-114815000D03*
%TD*%
%TO.C,R14*%
X118237000Y-122428000D03*
X118237000Y-119328000D03*
%TD*%
D12*
%TO.C,SW1*%
X105514000Y-87575100D03*
X112014000Y-87575100D03*
X105514000Y-92075100D03*
X112014000Y-92075100D03*
%TD*%
D19*
%TO.C,R12*%
X151080666Y-121311000D03*
X151080666Y-118211000D03*
%TD*%
%TO.C,R5*%
X158750000Y-93212513D03*
X158750000Y-90112513D03*
%TD*%
D17*
%TO.C,R19*%
X156281998Y-118185000D03*
X156281998Y-121285000D03*
%TD*%
%TO.C,R16*%
X161483330Y-118185000D03*
X161483330Y-121285000D03*
%TD*%
D23*
%TO.C,Q1*%
X125680000Y-116790000D03*
X127580000Y-116790000D03*
X126630000Y-114915000D03*
%TD*%
D24*
%TO.C,L1*%
X135789000Y-118615000D03*
X135789000Y-114915000D03*
%TD*%
D11*
%TO.C,R22*%
X118846000Y-94234000D03*
X121946000Y-94234000D03*
%TD*%
D25*
%TO.C,C2*%
X146050000Y-116961000D03*
X146050000Y-122561000D03*
%TD*%
D11*
%TO.C,R20*%
X118820000Y-88582500D03*
X121920000Y-88582500D03*
%TD*%
D26*
%TO.C,U1*%
X136906000Y-84680000D03*
X135636000Y-84680000D03*
X134366000Y-84680000D03*
X133096000Y-84680000D03*
X131826000Y-84680000D03*
X130556000Y-84680000D03*
X129286000Y-84680000D03*
X128016000Y-84680000D03*
X126746000Y-84680000D03*
X126746000Y-93980000D03*
X128016000Y-93980000D03*
X129286000Y-93980000D03*
X130556000Y-93980000D03*
X131826000Y-93980000D03*
X133096000Y-93980000D03*
X134366000Y-93980000D03*
X135636000Y-93980000D03*
X136906000Y-93980000D03*
%TD*%
D19*
%TO.C,R23*%
X164287200Y-93244000D03*
X164287200Y-90144000D03*
%TD*%
D17*
%TO.C,R18*%
X153681332Y-118185000D03*
X153681332Y-121285000D03*
%TD*%
%TO.C,R13*%
X115316000Y-119354000D03*
X115316000Y-122454000D03*
%TD*%
D19*
%TO.C,R7*%
X153670000Y-93212513D03*
X153670000Y-90112513D03*
%TD*%
%TO.C,R10*%
X146050000Y-93212513D03*
X146050000Y-90112513D03*
%TD*%
D27*
%TO.C,C3*%
X127647000Y-122428000D03*
X122047000Y-122428000D03*
%TD*%
D16*
%TO.C,R3*%
X135373500Y-123952000D03*
X132273500Y-123952000D03*
%TD*%
D17*
%TO.C,R17*%
X164084000Y-118185000D03*
X164084000Y-121285000D03*
%TD*%
D16*
%TO.C,R26*%
X108738000Y-103630732D03*
X105638000Y-103630732D03*
%TD*%
D11*
%TO.C,R27*%
X118846000Y-82931000D03*
X121946000Y-82931000D03*
%TD*%
D28*
%TO.C,Q3*%
X117632000Y-114665000D03*
X117632000Y-116565000D03*
X119507000Y-115615000D03*
%TD*%
D19*
%TO.C,R6*%
X156210000Y-93212513D03*
X156210000Y-90112513D03*
%TD*%
D29*
%TO.C,D3*%
X130862000Y-118215000D03*
X130862000Y-114915000D03*
%TD*%
D11*
%TO.C,R21*%
X118846000Y-91408250D03*
X121946000Y-91408250D03*
%TD*%
D19*
%TO.C,R9*%
X148590000Y-93212513D03*
X148590000Y-90112513D03*
%TD*%
%TO.C,R4*%
X161290000Y-93212513D03*
X161290000Y-90112513D03*
%TD*%
M02*
